<?xml version="1.0" encoding="UTF-8"?>
<svg version="1.1" xmlns="http://www.w3.org/2000/svg" width="884" height="849">
<path d="M0 0 C-0.65271556 3.51705958 -1.51393024 6.89325077 -2.5625 10.3125 C-2.96662109 11.63701172 -2.96662109 11.63701172 -3.37890625 12.98828125 C-3.68634766 13.98408203 -3.68634766 13.98408203 -4 15 C-4.66 15 -5.32 15 -6 15 C-6.185625 16.423125 -6.185625 16.423125 -6.375 17.875 C-8.30083732 31.30083732 -8.30083732 31.30083732 -10 33 C-10.165 34.155 -10.33 35.31 -10.5 36.5 C-11 40 -11 40 -12 41 C-16.88488918 66.37351006 -18.24566056 91.41082181 -15.6875 117.125 C-15.56995361 118.32181396 -15.45240723 119.51862793 -15.33129883 120.75170898 C-14.50011094 128.3789865 -13.01904357 135.60441767 -11 143 C-10.42886764 145.31038316 -9.86426666 147.62241554 -9.3125 149.9375 C-8.93544922 151.49791016 -8.93544922 151.49791016 -8.55078125 153.08984375 C-8.03558304 155.81199035 -7.89322531 158.23911146 -8 161 C-7.34 161 -6.68 161 -6 161 C-5.34922704 163.04009755 -4.70460176 165.08215669 -4.0625 167.125 C-3.70285156 168.26195312 -3.34320313 169.39890625 -2.97265625 170.5703125 C-2.08101661 173.71432699 -1.46648986 176.76894393 -1 180 C-0.34 180 0.32 180 1 180 C1.65043719 181.72744016 2.29514844 183.4570369 2.9375 185.1875 C3.29714844 186.15042969 3.65679687 187.11335937 4.02734375 188.10546875 C4.91156562 190.7368278 5.52568586 193.26894908 6 196 C6.66 196 7.32 196 8 196 C8.40089844 196.84820312 8.80179688 197.69640625 9.21484375 198.5703125 C23.63374417 228.32359907 46.56398836 258.72662619 74.0078125 277.46875 C74.66523438 277.9740625 75.32265625 278.479375 76 279 C76 279.66 76 280.32 76 281 C76.70125 281.23847656 77.4025 281.47695313 78.125 281.72265625 C81.50405392 283.22394787 84.0815758 285.17050977 87 287.4375 C91.19210409 290.71276116 91.19210409 290.71276116 95.77734375 293.36328125 C98.98911139 295.72836147 98.9685887 297.87919346 99.5625 301.75 C100.58229142 307.42918324 101.90589019 311.19879512 105 316 C105 316.99 105 317.98 105 319 C105.66 319 106.32 319 107 319 C108.2890625 320.4609375 108.2890625 320.4609375 109.625 322.375 C110.07101562 323.00148438 110.51703125 323.62796875 110.9765625 324.2734375 C112 326 112 326 112 328 C112.66 328 113.32 328 114 328 C116.625 330.375 116.625 330.375 119 333 C119 333.66 119 334.32 119 335 C119.66 335 120.32 335 121 335 C121 335.66 121 336.32 121 337 C121.55558594 337.26167969 122.11117188 337.52335937 122.68359375 337.79296875 C125.27021742 339.14080469 127.63298144 340.69878443 130.0625 342.3125 C146.06346886 352.51417591 164.01314022 358.11726683 182.90625 354.1875 C191.30713143 351.55765886 196.97218678 347.31001421 203 341 C203.68578125 340.36964844 204.3715625 339.73929687 205.078125 339.08984375 C207.35463496 336.61437052 208.65646057 334.14665444 210.125 331.125 C210.62257813 330.11695313 211.12015625 329.10890625 211.6328125 328.0703125 C217.041289 315.92441955 215.38137612 304.52646153 212 292 C211.47812918 289.81274728 210.95725774 287.62525581 210.4375 285.4375 C209.62342667 282.04782744 208.80440619 279.00280426 207 276 C206.34 275.67 205.68 275.34 205 275 C203.71691614 272.70380241 202.52607908 270.42314795 201.375 268.0625 C201.05015625 267.41603516 200.7253125 266.76957031 200.390625 266.10351562 C198 261.26702009 198 261.26702009 198 259 C197.40574219 258.74863281 196.81148438 258.49726563 196.19921875 258.23828125 C193.72059191 256.84267786 192.5460309 255.42610904 190.8125 253.1875 C185.66410185 247.11106442 179.8949148 243.96955094 172 243 C162.64832946 242.49545567 154.46297456 243.20146623 145.75 246.625 C142.4503141 247.83488483 140.43939362 248.32244315 137 248 C136.2058112 241.9641651 138.70318085 236.9312985 142 232 C142.99 231.67 143.98 231.34 145 231 C145.28875 230.278125 145.5775 229.55625 145.875 228.8125 C147.32940611 225.17648473 149.30162358 222.82388231 152 220 C153.66140763 219.32033324 155.32700041 218.65061095 157 218 C157.1453418 217.36465332 157.29068359 216.72930664 157.44042969 216.07470703 C158 214 158 214 161.203125 211.9296875 C162.544932 211.23088504 163.89430588 210.54646432 165.25 209.875 C165.91902344 209.52824219 166.58804687 209.18148437 167.27734375 208.82421875 C170.7892445 207.02342092 174.3025486 205.38941497 178 204 C179.12535156 203.47019531 180.25070312 202.94039062 181.41015625 202.39453125 C187.53310947 200.11618969 193.99706008 200.60614022 200.4375 200.6875 C201.70916016 200.68427734 202.98082031 200.68105469 204.29101562 200.67773438 C209.74480666 200.70883427 214.87298013 200.79911863 220.1796875 202.12890625 C224.30165818 203.07050658 224.30165818 203.07050658 227.6875 201.25 C228.244375 200.8684375 228.80125 200.486875 229.375 200.09375 C233.09619651 197.5890985 236.59467026 197 241 197 C241 196.34 241 195.68 241 195 C244.63 195 248.26 195 252 195 C252 194.34 252 193.68 252 193 C256.29 193 260.58 193 265 193 C265 193.66 265 194.32 265 195 C267.31 195 269.62 195 272 195 C272 195.33 272 195.66 272 196 C278.21206011 197.38794402 284.30087188 198.30610464 290.65234375 198.75390625 C293 199 293 199 296 200 C298.75326537 200.20563808 301.49316334 200.37276138 304.25 200.5 C312.25748838 200.87731621 312.25748838 200.87731621 316.16796875 201.5234375 C322.12383062 202.26412572 328.06725303 202.14355156 334.0625 202.125 C335.31611328 202.12886719 336.56972656 202.13273438 337.86132812 202.13671875 C339.07369141 202.13542969 340.28605469 202.13414062 341.53515625 202.1328125 C343.18076538 202.13112061 343.18076538 202.13112061 344.85961914 202.12939453 C347.9884423 202.00047622 350.92049277 201.54867203 354 201 C355.39767489 200.87931504 356.79781099 200.78290796 358.19921875 200.71875 C359.30040039 200.66267578 359.30040039 200.66267578 360.42382812 200.60546875 C361.94463617 200.53461143 363.46547008 200.46430723 364.98632812 200.39453125 C368.1977472 200.2301338 370.93305603 200.02231466 374 199 C377.059623 198.6940377 380.11995178 198.49176802 383.1875 198.28125 C386.0775174 198.09652802 386.0775174 198.09652802 389 197 C391.33299825 196.96045766 393.66708189 196.95598268 396 197 C396 196.34 396 195.68 396 195 C398.64 195 401.28 195 404 195 C404 194.34 404 193.68 404 193 C404.59949463 192.86424561 405.19898926 192.72849121 405.81665039 192.58862305 C408.56687601 191.96175094 411.3146517 191.32470868 414.0625 190.6875 C415.47692383 190.36749023 415.47692383 190.36749023 416.91992188 190.04101562 C422.25270712 188.7960797 427.00969317 187.2352416 432 185 C434.9375 184.8125 434.9375 184.8125 437 185 C437.33 184.01 437.66 183.02 438 182 C439.96875 181.15625 439.96875 181.15625 442.5 180.5 C446.07999953 179.52504335 449.60945132 178.50109027 453.125 177.3125 C453.87007812 177.06113281 454.61515625 176.80976563 455.3828125 176.55078125 C455.91648437 176.36902344 456.45015625 176.18726563 457 176 C457 175.34 457 174.68 457 174 C458.32 174 459.64 174 461 174 C461 173.34 461 172.68 461 172 C462.88923398 170.98758753 464.78669944 169.99052575 466.6875 169 C467.74324219 168.443125 468.79898438 167.88625 469.88671875 167.3125 C472.92226262 166.0327726 474.76026826 165.71148957 478 166 C477.125 170.75 477.125 170.75 476 173 C474.44140625 174.0703125 474.44140625 174.0703125 472.5625 175.125 C471.63630859 175.65480469 471.63630859 175.65480469 470.69140625 176.1953125 C469 177 469 177 467 177 C466.773125 177.59683594 466.54625 178.19367188 466.3125 178.80859375 C464.62957286 181.61848102 462.85897829 182.50419061 460 184.0625 C456.62702245 185.91077403 455.17383334 186.73925 453 190 C450.28515625 191.60546875 450.28515625 191.60546875 447.0625 193.1875 C446.00160156 193.71730469 444.94070313 194.24710938 443.84765625 194.79296875 C441 196 441 196 438 196 C438 196.66 438 197.32 438 198 C437.01 198 436.02 198 435 198 C435 198.66 435 199.32 435 200 C429.66666667 202.66666667 424.33333333 205.33333333 419 208 C419 208.33 419 208.66 419 209 C417.35 209 415.7 209 414 209 C414 209.66 414 210.32 414 211 C413.00097656 211.34933594 412.00195312 211.69867188 410.97265625 212.05859375 C409.66921795 212.51807919 408.3658354 212.97772279 407.0625 213.4375 C406.40314453 213.66759766 405.74378906 213.89769531 405.06445312 214.13476562 C401.77671378 215.11964592 401.77671378 215.11964592 399 217 C397.33382885 217.04063832 395.66611905 217.042721 394 217 C394 217.66 394 218.32 394 219 C392.68 219 391.36 219 390 219 C390 219.66 390 220.32 390 221 C378.72849546 224.29464911 367.49524178 227.56872437 356 230 C360.30594821 229.72008359 364.61143664 229.43421156 368.91650391 229.14111328 C370.89599802 229.00704396 372.87572809 228.87647181 374.85546875 228.74609375 C376.01691406 228.66488281 377.17835938 228.58367187 378.375 228.5 C379.43460938 228.4278125 380.49421875 228.355625 381.5859375 228.28125 C383.94769442 228.25914833 383.94769442 228.25914833 385 227 C387.67058851 226.85884839 390.32432238 226.95752893 393 227 C393.33 226.01 393.66 225.02 394 224 C396.64 224.33 399.28 224.66 402 225 C402 226.32 402 227.64 402 229 C400.35 229 398.7 229 397 229 C396.67 229.99 396.34 230.98 396 232 C393.375 232.84375 393.375 232.84375 390 233.5 C385.88554373 234.35266692 381.95437544 235.2647264 378 236.6875 C374.88675364 237.78831639 372.34228001 238.32344645 369 238 C369 238.66 369 239.32 369 240 C367.02 240 365.04 240 363 240 C363 240.66 363 241.32 363 242 C360.89609165 242.60506561 358.79185653 243.20899496 356.6875 243.8125 C354.78484375 244.35970703 354.78484375 244.35970703 352.84375 244.91796875 C348.58451509 246.11696069 344.30607694 247.22330937 340.01171875 248.2890625 C337.80765124 248.80611234 337.80765124 248.80611234 337 251 C334.67684969 251.7013284 332.34210921 252.36485174 330 253 C328.64649406 253.62469505 327.30065517 254.2716331 326 255 C325.01 254.34 324.02 253.68 323 253 C323 253.66 323 254.32 323 255 C322.34 255 321.68 255 321 255 C320.6596875 255.9590625 320.6596875 255.9590625 320.3125 256.9375 C319.20892922 259.51249848 318.00686902 261.82216243 316.625 264.25 C315.74536195 265.83076132 314.87029298 267.41407454 314 269 C313.45085937 269.99966797 313.45085937 269.99966797 312.890625 271.01953125 C305.57052778 285.74418835 305.24389348 303.5177092 310 319 C315.57455367 332.79399455 323.64050646 345.54326818 337.4453125 352.02734375 C352.0797688 357.59917803 367.74236488 356.06525725 382 350 C388.61598113 346.84800546 395.11071229 343.32659494 400.828125 338.72265625 C403 337 403 337 405 337 C405 336.34 405 335.68 405 335 C405.66 335 406.32 335 407 335 C407 334.34 407 333.68 407 333 C409.375 330.375 409.375 330.375 412 328 C412.66 328 413.32 328 414 328 C414.268125 327.443125 414.53625 326.88625 414.8125 326.3125 C416.10899496 323.78774666 417.42476323 321.36285516 419 319 C419.66 319 420.32 319 421 319 C421.12503906 318.43539063 421.25007812 317.87078125 421.37890625 317.2890625 C422.03698769 314.8636806 422.94201597 312.68151771 423.9375 310.375 C425.44990817 306.77175387 426.21684342 303.68702988 426.625 299.8125 C427.40670979 295.42395379 428.8649842 293.84908423 432.5 291.3125 C434.32668655 290.19737158 436.16033227 289.09358026 438 288 C439.84231831 286.70014208 441.67606721 285.38803255 443.5 284.0625 C447.75384615 281 447.75384615 281 450 281 C450 280.34 450 279.68 450 279 C451.6171875 277.58984375 451.6171875 277.58984375 453.875 275.9375 C467.96661909 265.23749731 481.5060395 252.28125451 492 238 C492.47115234 237.37287109 492.94230469 236.74574219 493.42773438 236.09960938 C502.85543496 223.54093812 512.0478006 210.61511383 518 196 C518.66 196 519.32 196 520 196 C520.18369141 194.94232422 520.18369141 194.94232422 520.37109375 193.86328125 C521.03405201 190.84496817 521.98175575 188.08110558 523.0625 185.1875 C523.42472656 184.21167969 523.78695312 183.23585937 524.16015625 182.23046875 C524.43730469 181.49441406 524.71445312 180.75835937 525 180 C525.66 180 526.32 180 527 180 C527.268125 178.72125 527.53625 177.4425 527.8125 176.125 C528.9451896 170.99937583 530.43201301 166.00710512 532 161 C532.66 161 533.32 161 534 161 C534.05607422 160.09121094 534.05607422 160.09121094 534.11328125 159.1640625 C534.45921516 154.75510096 534.97600604 150.70430646 536.375 146.5 C544.82384673 119.99947099 544.546981 89.54256761 541.26611328 62.24169922 C540.9904339 59.91941658 540.74279133 57.59505422 540.49609375 55.26953125 C540.13154963 51.97931449 539.65756917 48.74674777 539 45.5 C538.835 44.6646875 538.67 43.829375 538.5 42.96875 C538.18136609 41.01093523 538.18136609 41.01093523 537 40 C536.855625 38.948125 536.71125 37.89625 536.5625 36.8125 C536.04204107 33.28494504 535.18566041 30.34774703 534 27 C532.69172789 22.8571383 531.73599786 19.35603524 532 15 C531.34 15 530.68 15 530 15 C529.51787786 13.43840941 529.03944127 11.87568072 528.5625 10.3125 C528.16224609 9.00732422 528.16224609 9.00732422 527.75390625 7.67578125 C527.03655471 5.12974079 526.482459 2.5996577 526 0 C529.35888033 -0.41150485 530.6510542 -0.26193088 533.40356445 1.80419922 C534.62112427 3.04194092 534.62112427 3.04194092 535.86328125 4.3046875 C537.19262695 5.64466797 537.19262695 5.64466797 538.54882812 7.01171875 C539.46083984 7.95660156 540.37285156 8.90148438 541.3125 9.875 C542.25221504 10.82264718 543.19296003 11.76927421 544.13476562 12.71484375 C551 19.70581502 551 19.70581502 551 22 C551.66 22 552.32 22 553 22 C554.62109375 23.828125 554.62109375 23.828125 556.4375 26.25 C557.03433594 27.03890625 557.63117187 27.8278125 558.24609375 28.640625 C558.82488281 29.41921875 559.40367187 30.1978125 560 31 C560.85271484 32.07507812 560.85271484 32.07507812 561.72265625 33.171875 C563 35 563 35 563 37 C563.66 37 564.32 37 565 37 C566.20166016 38.49023438 566.20166016 38.49023438 567.5390625 40.59375 C568.03325684 41.36887939 568.52745117 42.14400879 569.03662109 42.94262695 C569.82286865 44.20852661 569.82286865 44.20852661 570.625 45.5 C571.16334473 46.36133545 571.70168945 47.2226709 572.25634766 48.11010742 C577.02267432 55.84346175 581.21101561 63.7487199 585 72 C585.28601074 72.61746094 585.57202148 73.23492187 585.86669922 73.87109375 C588.97998251 80.65328372 591.56257999 87.3292706 593.35546875 94.57421875 C594.01275297 97.25374451 594.01275297 97.25374451 595.5 100.6875 C599.03235562 109.72289384 600.17015607 120.24075978 600.7890625 129.86328125 C600.93861607 132.18500951 600.93861607 132.18500951 602 135 C602.20884256 139.47976067 602.18579285 143.96247461 602.18530273 148.4465332 C602.18744802 150.63448798 602.20548948 152.82190292 602.22460938 155.00976562 C602.27240465 167.05238551 601.44256043 179.04104297 598.546875 190.77734375 C598.14594233 192.40684866 597.78727572 194.04690737 597.453125 195.69140625 C594.34102288 210.54979625 589.21669 225.16285129 583 239 C582.34 239 581.68 239 581 239 C580.9175 239.639375 580.835 240.27875 580.75 240.9375 C579.70479628 245.20541517 577.85908174 249.03107667 576 253 C575.34 253 574.68 253 574 253 C573.82017578 253.86806274 573.82017578 253.86806274 573.63671875 254.75366211 C572.5093143 258.73113463 570.15406413 262.06268683 568 265.5625 C567.5059668 266.3680835 567.01193359 267.17366699 566.50292969 268.00366211 C563.0372737 273.55818374 559.35223628 278.62435882 555.07421875 283.5859375 C552.35907653 286.74593353 549.88930092 290.07141649 547.41015625 293.41796875 C546.94480469 293.94003906 546.47945312 294.46210938 546 295 C545.34 295 544.68 295 544 295 C544 295.66 544 296.32 544 297 C543.34 297 542.68 297 542 297 C541.7525 297.556875 541.505 298.11375 541.25 298.6875 C539.78453391 301.39861227 537.94496381 303.61623338 536 306 C536.84304688 305.3503125 537.68609375 304.700625 538.5546875 304.03125 C539.66126681 303.18724883 540.76804815 302.34351251 541.875 301.5 C542.43058594 301.07074219 542.98617187 300.64148438 543.55859375 300.19921875 C547.7734375 297 547.7734375 297 550 297 C550 296.34 550 295.68 550 295 C551.65 294.34 553.3 293.68 555 293 C555 292.34 555 291.68 555 291 C556.3984375 289.625 556.3984375 289.625 558.375 288 C568.18260513 279.62807605 577.47540174 270.23091978 584.4375 259.3125 C584.953125 258.549375 585.46875 257.78625 586 257 C586.66 257 587.32 257 588 257 C588.25652344 256.29101562 588.51304687 255.58203125 588.77734375 254.8515625 C590.09697249 251.77383412 591.71947814 249.16839013 593.5625 246.375 C595.43749947 243.52936671 596.9209413 241.23717611 598 238 C598.66 238 599.32 238 600 238 C600.12906738 237.41822998 600.25813477 236.83645996 600.39111328 236.23706055 C600.98376894 234.05963321 601.7505735 232.22958453 602.7421875 230.20703125 C603.08507812 229.49796631 603.42796875 228.78890137 603.78125 228.05834961 C604.1421875 227.31721924 604.503125 226.57608887 604.875 225.8125 C607.68249773 219.96416861 610.1834885 214.24425829 612 208 C612.66 208 613.32 208 614 208 C613.95875 207.278125 613.9175 206.55625 613.875 205.8125 C614.01238723 202.72128742 614.83154075 200.85350047 616 198 C619.18451707 188.13702202 621.34623426 178.21844184 623 168 C623.25160889 166.59016846 623.25160889 166.59016846 623.50830078 165.15185547 C625.30896052 154.16995334 625.44390848 143.23006033 625.625 132.125 C625.66327823 130.16534911 625.70233526 128.20571327 625.7421875 126.24609375 C625.83709025 121.49752132 625.92150099 116.74887076 626 112 C627.32 112.33 628.64 112.66 630 113 C630.33 114.32 630.66 115.64 631 117 C631.66 117 632.32 117 633 117 C636.51629997 120.80932497 638.65846062 124.99971686 640 130 C640.66 130 641.32 130 642 130 C644.04169485 132.90548882 645 134.40142046 645 138 C645.66 138 646.32 138 647 138 C647.56267578 139.16015625 647.56267578 139.16015625 648.13671875 140.34375 C651.45914023 147.1829475 651.45914023 147.1829475 655.375 153.6875 C662.92622196 165.40157509 667.89239337 179.08920038 673 192 C673.39058594 192.97324219 673.78117188 193.94648438 674.18359375 194.94921875 C676.54949972 201.10793897 678.18876661 207.3696738 679.6940918 213.78344727 C680.26919482 217.17466208 680.26919482 217.17466208 682 220 C682.33333333 222.33333333 682.66666667 224.66666667 683 227 C683.33 227.33 683.66 227.66 684 228 C684.53924529 230.81052298 685.03674358 233.61438783 685.5 236.4375 C686.22521064 241.87541523 686.22521064 241.87541523 688 247 C688.09735566 249.33308481 688.12797326 251.66903565 688.12939453 254.00415039 C688.13114685 254.72460037 688.13289917 255.44505035 688.13470459 256.18733215 C688.13911413 258.57413119 688.13618858 260.96085643 688.1328125 263.34765625 C688.13348572 265.00150059 688.1344559 266.65534484 688.13571167 268.30918884 C688.13718736 271.77685487 688.13503792 275.24449516 688.13037109 278.7121582 C688.12466943 283.16688869 688.12795638 287.62155899 688.13394356 292.07628727 C688.13754884 295.49137327 688.13641082 298.90644488 688.13381577 302.3215313 C688.13314663 303.96465499 688.13397444 305.60777998 688.13629532 307.25090218 C688.13882178 309.54238495 688.13498158 311.83376878 688.12939453 314.12524414 C688.12820114 316.08476768 688.12820114 316.08476768 688.12698364 318.08387756 C688 321 688 321 687 322 C686.60024514 324.07872529 686.23178752 326.16347048 685.875 328.25 C683.68390686 340.12934961 679.64527367 351.86058752 675 363 C674.34 363 673.68 363 673 363 C672.9175 363.825 672.835 364.65 672.75 365.5 C671.83552731 369.76753921 670.07776822 373.19236894 668 377 C667.34 377 666.68 377 666 377 C665.85111328 377.82757813 665.85111328 377.82757813 665.69921875 378.671875 C663.18167869 387.05429889 655.61905784 397.16384148 649 403 C648.34 403 647.68 403 647 403 C646.731875 403.639375 646.46375 404.27875 646.1875 404.9375 C645 407 645 407 642 408 C642 408.66 642 409.32 642 410 C641.34 410 640.68 410 640 410 C640 410.66 640 411.32 640 412 C638.18348129 413.62046947 636.37473835 415.0974201 634.4375 416.5625 C633.56653687 417.22415161 633.56653687 417.22415161 632.67797852 417.89916992 C622.49821901 425.48284009 611.87405267 431.48214969 600 436 C599.16082031 436.35707031 598.32164062 436.71414063 597.45703125 437.08203125 C591.11623328 439.77359414 584.70804576 441.4737825 578 443 C577.23945312 443.18433594 576.47890625 443.36867188 575.6953125 443.55859375 C573.47065892 444.08419872 571.24164179 444.55241761 569 445 C568.15308594 445.1753125 567.30617188 445.350625 566.43359375 445.53125 C554.74916537 447.64720507 542.84123202 447.65950402 531 448 C533.83500564 448.94500188 535.60187768 449.13138049 538.54052734 449.14526367 C539.45933685 449.15164352 540.37814636 449.15802338 541.32479858 449.16459656 C542.31847443 449.16570938 543.31215027 449.1668222 544.3359375 449.16796875 C545.36627106 449.17129715 546.39660461 449.17462555 547.4581604 449.17805481 C549.64544224 449.18312317 551.83273183 449.18546316 554.02001953 449.18530273 C557.32728338 449.18746875 560.63420236 449.20556835 563.94140625 449.22460938 C574.47260164 449.25258127 584.66328934 449.23394878 595 447 C595.80590576 446.83435547 596.61181152 446.66871094 597.44213867 446.49804688 C598.8546985 446.19907823 600.26329948 445.8809585 601.66796875 445.546875 C603.35128328 445.15212787 605.04278355 444.7917408 606.73828125 444.453125 C621.76632989 441.32148589 636.27674567 435.82551334 650 429 C651.0828125 428.47148437 652.165625 427.94296875 653.28125 427.3984375 C659.07834159 424.56004489 659.07834159 424.56004489 664.65625 421.32421875 C667 420 667 420 670 420 C669.41926044 424.37167836 667.78839097 427.38291805 665.5 431.125 C662.89393108 435.39682408 662.89393108 435.39682408 661 440 C660.34 440 659.68 440 659 440 C658.87625 440.5775 658.7525 441.155 658.625 441.75 C657.99351176 444.02335767 657.11141809 445.9253529 656 448 C655.34 448 654.68 448 654 448 C653.73574219 448.72832031 653.47148438 449.45664062 653.19921875 450.20703125 C651.99270071 453.01699998 650.59979984 455.21309175 648.8125 457.6875 C646.86392211 460.39838765 644.92747267 463.10704335 643.0546875 465.87109375 C642.43851563 466.77988281 641.82234375 467.68867188 641.1875 468.625 C640.62417969 469.46289062 640.06085937 470.30078125 639.48046875 471.1640625 C638.74763672 472.07285156 638.74763672 472.07285156 638 473 C637.34 473 636.68 473 636 473 C635.731875 473.57234375 635.46375 474.1446875 635.1875 474.734375 C633.95867364 477.07884634 632.57477824 479.12404938 631 481.25 C630.2265625 482.30960937 630.2265625 482.30960937 629.4375 483.390625 C628.963125 483.92171875 628.48875 484.4528125 628 485 C627.34 485 626.68 485 626 485 C625.64421875 485.84256348 625.64421875 485.84256348 625.28125 486.70214844 C623.70680643 489.52582658 621.78315455 491.47614842 619.5 493.765625 C618.613125 494.65507813 617.72625 495.54453125 616.8125 496.4609375 C615.884375 497.38132812 614.95625 498.30171875 614 499.25 C612.6078125 500.65378906 612.6078125 500.65378906 611.1875 502.0859375 C610.300625 502.97023438 609.41375 503.85453125 608.5 504.765625 C607.6853125 505.57805664 606.870625 506.39048828 606.03125 507.22753906 C604 509 604 509 602 509 C602 509.66 602 510.32 602 511 C601.34 511 600.68 511 600 511 C600 511.66 600 512.32 600 513 C598.56298828 514.32861328 598.56298828 514.32861328 596.5703125 515.8203125 C595.85746094 516.35527344 595.14460937 516.89023437 594.41015625 517.44140625 C593.65605469 517.99699219 592.90195312 518.55257812 592.125 519.125 C591.37863281 519.68832031 590.63226562 520.25164063 589.86328125 520.83203125 C584.26225787 525 584.26225787 525 582 525 C582 525.66 582 526.32 582 527 C580.58569336 528.10986328 580.58569336 528.10986328 578.58984375 529.3203125 C577.48709106 529.99392822 577.48709106 529.99392822 576.36206055 530.68115234 C575.56195557 531.15762207 574.76185059 531.6340918 573.9375 532.125 C573.12128174 532.61564941 572.30506348 533.10629883 571.46411133 533.61181641 C556.88807205 542.30500308 542.41763339 549.38436641 526 554 C524.845 554.350625 523.69 554.70125 522.5 555.0625 C513.1260222 557.57338691 504.22065776 558.37272981 494.54321289 558.37060547 C492.33335046 558.37495892 490.12552419 558.41133162 487.91601562 558.44921875 C474.28825525 558.55622613 462.52972455 555.42195353 450 550 C448.33495557 549.32929196 446.66867799 548.66161619 445 548 C445 547.34 445 546.68 445 546 C444.44570313 545.9071875 443.89140625 545.814375 443.3203125 545.71875 C430.08374164 541.61853276 417.66793682 526.33599339 409 516 C417.14541954 537.56140468 435.16818292 552.65482041 455.5625 562.25 C464.69900262 566.08831528 474.22809615 567.67947245 484 569 C484.33 570.65 484.66 572.3 485 574 C484.14277344 574.25394531 483.28554688 574.50789062 482.40234375 574.76953125 C481.25894531 575.11371094 480.11554687 575.45789063 478.9375 575.8125 C477.81214844 576.14894531 476.68679688 576.48539063 475.52734375 576.83203125 C471.96754022 577.94770487 471.96754022 577.94770487 468.5390625 579.53125 C449.45423804 587.4516628 422.60061152 586.47424036 403.5 579.0625 C401.99353266 578.38928947 400.49305423 577.70245664 399 577 C398.26910156 576.69191406 397.53820312 576.38382813 396.78515625 576.06640625 C394.49531859 575.09654531 392.24704415 574.06518173 390 573 C389.15824219 572.60425781 388.31648437 572.20851563 387.44921875 571.80078125 C376.53999598 566.29091331 365.81845438 557.42466253 358 548 C358 547.34 358 546.68 358 546 C357.34 546 356.68 546 356 546 C354.7109375 544.5390625 354.7109375 544.5390625 353.375 542.625 C352.70597656 541.68527344 352.70597656 541.68527344 352.0234375 540.7265625 C351 539 351 539 351 537 C350.34 537 349.68 537 349 537 C346 531.25 346 531.25 346 529 C337.90865657 528.69316535 331.41947322 528.64023854 324 532 C323.01 532 322.02 532 321 532 C321 532.66 321 533.32 321 534 C318.625 536.625 318.625 536.625 316 539 C315.34 539 314.68 539 314 539 C313.79503906 539.71027344 313.59007812 540.42054688 313.37890625 541.15234375 C313.10949219 542.07144531 312.84007812 542.99054687 312.5625 543.9375 C312.29566406 544.85402344 312.02882813 545.77054688 311.75390625 546.71484375 C311 549 311 549 310 550 C309.17132243 557.2407416 309.17132243 557.2407416 312 563.5625 C312.66 564.036875 313.32 564.51125 314 565 C314 565.66 314 566.32 314 567 C314.58265625 567.268125 315.1653125 567.53625 315.765625 567.8125 C318.02786601 569.01480991 319.80576318 570.33825913 321.75 572 C322.36359375 572.515625 322.9771875 573.03125 323.609375 573.5625 C325 575 325 575 325 577 C325.51433594 577.22171875 326.02867187 577.4434375 326.55859375 577.671875 C329.98190912 579.53415856 332.9617 581.89924833 336.0625 584.25 C342.12677251 588.78502764 348.1938473 592.64644867 355 596 C355 596.66 355 597.32 355 598 C355.5875708 598.13124268 356.1751416 598.26248535 356.78051758 598.39770508 C360.28641537 599.34909105 363.43928613 601.09008416 366.6875 602.6875 C374.62443962 606.51428489 382.69059708 609.54170366 391.04223633 612.32348633 C393.09536807 613.03295485 395.11548372 613.80822761 397.140625 614.59375 C400.29553691 615.78786471 403.35284801 616.6179317 406.6875 617.1875 C407.57824219 617.34605469 408.46898437 617.50460937 409.38671875 617.66796875 C411.95650159 617.9944733 414.412775 618.06060167 417 618 C417 618.66 417 619.32 417 620 C418.5778125 619.9690625 418.5778125 619.9690625 420.1875 619.9375 C423.32704904 619.98896802 425.96883396 620.26517187 429 621 C429 622.65 429 624.3 429 626 C427.515 626.804375 427.515 626.804375 426 627.625 C422.30568972 629.71668688 419.02040802 632.19205336 415.69921875 634.828125 C414 636 414 636 412 636 C412 636.66 412 637.32 412 638 C410.1015625 639.7265625 410.1015625 639.7265625 407.625 641.625 C406.81289063 642.25664063 406.00078125 642.88828125 405.1640625 643.5390625 C403 645 403 645 401 645 C401 645.66 401 646.32 401 647 C399.2421875 648.55078125 399.2421875 648.55078125 396.875 650.3125 C394.03210798 652.45250375 391.24904129 654.60427555 388.5625 656.9375 C386 659 386 659 384 659 C384 659.66 384 660.32 384 661 C381.88877538 662.7838797 379.76738319 664.46402922 377.5625 666.125 C372.3849036 670.0908604 367.43357874 674.17038385 362.671875 678.63671875 C361 680 361 680 359 680 C359 680.66 359 681.32 359 682 C355.53846154 685 355.53846154 685 353 685 C353 685.66 353 686.32 353 687 C351.28048026 688.53851766 349.49812503 690.00731759 347.6875 691.4375 C343.83532998 694.45235569 343.83532998 694.45235569 340.26953125 697.78515625 C339 699 339 699 337 699 C337 699.66 337 700.32 337 701 C336.34 701 335.68 701 335 701 C335 701.66 335 702.32 335 703 C329.99126383 707.89225393 329.99126383 707.89225393 326.125 708.3125 C325.42375 708.209375 324.7225 708.10625 324 708 C323.67 706.989375 323.34 705.97875 323 704.9375 C321.45685788 700.80071994 319.43200386 696.98735348 317.3125 693.125 C313.76990872 686.65839128 310.73080994 680.04991392 307.79907227 673.28735352 C305.80105055 668.70803666 303.60656628 664.38091261 301.08203125 660.06640625 C299.34506652 656.74924256 298.19471948 653.24354133 296.97265625 649.7109375 C295.53591503 645.70652622 293.76880048 641.8663161 292 638 C290.37656909 634.428452 289.77527555 631.93267789 290 628 C289.34 628 288.68 628 288 628 C286.02 621.07 286.02 621.07 284 614 C285.3384198 625.63149313 285.3384198 625.63149313 287.4296875 637.14453125 C288.41486721 642.07717759 289.1698119 647.05178942 289.94702148 652.02099609 C290.25101139 655.82610759 290.25101139 655.82610759 292 659 C292.31923492 661.0572917 292.51161352 663.11613521 292.71875 665.1875 C292.81998043 667.0167533 292.81998043 667.0167533 294 668 C294.30658096 669.84859212 294.56857956 671.70460131 294.8125 673.5625 C296.16079438 682.7572594 298.47262332 691.68011819 301.03515625 700.60546875 C301.91565892 703.70326964 302.69321105 706.80475836 303.4375 709.9375 C304.31791988 713.53554248 305.29169293 716.94473828 306.6875 720.375 C307.95922942 723.88739555 308.27688144 726.30824749 308 730 C307.34 730 306.68 730 306 730 C305.7525 730.721875 305.505 731.44375 305.25 732.1875 C304 735 304 735 302.2578125 737.171875 C299.47288921 740.66025642 297.04988088 744.31830322 294.625 748.0625 C294.14184326 748.80749756 293.65868652 749.55249512 293.16088867 750.32006836 C289.3057061 756.34917251 285.97521536 762.48465498 283 769 C282.34 769 281.68 769 281 769 C280.87625 769.9075 280.7525 770.815 280.625 771.75 C280.07890323 774.58970323 279.42736197 776.52590591 278 779 C277.34 779 276.68 779 276 779 C275.87238281 779.56332031 275.74476563 780.12664063 275.61328125 780.70703125 C273.82966943 787.37569455 270.72592273 793.74322662 267.83203125 799.9921875 C267.00916529 801.97788283 266.46515689 803.9044447 266 806 C264.02 806 262.04 806 260 806 C259.75765625 805.2265625 259.5153125 804.453125 259.265625 803.65625 C257.01743242 796.66955922 254.41899995 790.39818173 250.8828125 783.96875 C250 782 250 782 250 779 C249.34 779 248.68 779 248 779 C245 772.375 245 772.375 245 769 C244.34 769 243.68 769 243 769 C242.69449219 768.33097656 242.38898438 767.66195312 242.07421875 766.97265625 C238.95587857 760.42853391 235.44006593 754.32848064 231.5 748.25 C231.04971436 747.55398682 230.59942871 746.85797363 230.13549805 746.14086914 C227.30550771 741.830325 224.30746707 737.70853977 221.11914062 733.65527344 C220 732 220 732 220 730 C219.34 730 218.68 730 218 730 C217.71265627 725.06222483 218.68787931 721.43989172 220.375 716.8125 C222.29433945 711.38526426 223.64727531 706.16547209 224.54296875 700.46484375 C224.9838813 698.08693079 225.62388729 695.96144322 226.4375 693.6875 C229.01423194 686.42817906 230.49189283 678.75392609 231.5234375 671.1328125 C232 668 232 668 233 667 C233.20604085 665.67218122 233.3662959 664.33704105 233.5 663 C233.88888889 659.11111111 233.88888889 659.11111111 235 658 C235.5216112 655.18926079 235.99589625 652.38596016 236.4375 649.5625 C238.0325328 639.62429319 238.0325328 639.62429319 239.0625 634.875 C240.50399527 627.99458562 241.18634517 620.97665735 242 614 C240.68 618.62 239.36 623.24 238 628 C237.34 628 236.68 628 236 628 C236.04640625 628.70640625 236.0928125 629.4128125 236.140625 630.140625 C235.97692549 633.46918163 235.08759277 635.70415621 233.75 638.75 C233.29367187 639.801875 232.83734375 640.85375 232.3671875 641.9375 C229.33485401 648.72992701 229.33485401 648.72992701 227.890625 651.93359375 C227.054385 653.87381726 226.32836916 655.82098383 225.625 657.8125 C224.00679942 662.22577432 221.87431439 666.33757058 219.73828125 670.51953125 C217.74132072 674.51793987 215.87266382 678.56741325 214 682.625 C211.75880486 687.47824706 209.43614019 692.1043574 206.5625 696.625 C204.10703504 700.51115592 203.19930627 703.41595583 203 708 C200.06552319 708.34934248 197.85632498 708.51495218 195.265625 706.95703125 C193.625 705.625 193.625 705.625 191 703 C191 702.34 191 701.68 191 701 C190.34 701 189.68 701 189 701 C189 700.34 189 699.68 189 699 C188.44570313 698.76410156 187.89140625 698.52820313 187.3203125 698.28515625 C184.43552758 696.6873545 182.28827968 694.68148991 179.875 692.4375 C176.68492491 689.36280814 176.68492491 689.36280814 173 687 C173 686.34 173 685.68 173 685 C172.38125 684.690625 171.7625 684.38125 171.125 684.0625 C169.75 683.375 168.375 682.6875 167 682 C167 681.34 167 680.68 167 680 C166.34 680 165.68 680 165 680 C165 679.34 165 678.68 165 678 C164.38125 677.690625 163.7625 677.38125 163.125 677.0625 C161.75 676.375 160.375 675.6875 159 675 C159 674.34 159 673.68 159 673 C158.47664063 672.78472656 157.95328125 672.56945312 157.4140625 672.34765625 C154.03204369 670.45963604 151.2866829 667.9754736 148.375 665.4375 C144.44179069 661.85426322 144.44179069 661.85426322 140 659 C140 658.34 140 657.68 140 657 C139.47921875 656.773125 138.9584375 656.54625 138.421875 656.3125 C135.12315465 654.52480639 132.21542579 652.28109676 129.25 650 C128.64800781 649.54882812 128.04601562 649.09765625 127.42578125 648.6328125 C125.91093644 647.47177498 124.45030179 646.24072061 123 645 C123 644.34 123 643.68 123 643 C121.68 642.67 120.36 642.34 119 642 C119 641.34 119 640.68 119 640 C117.35 639.34 115.7 638.68 114 638 C114 637.34 114 636.68 114 636 C113.27039063 635.74347656 112.54078125 635.48695313 111.7890625 635.22265625 C108.87623379 633.94574395 106.82358229 632.45274213 104.375 630.4375 C101.80151356 628.32513314 100.18344921 627.06114974 97 626 C97 624.35 97 622.7 97 621 C98.8871875 620.76216797 98.8871875 620.76216797 100.8125 620.51953125 C112.01847514 619.02415417 122.33242804 616.69839981 133 613 C134.05574219 612.67 135.11148437 612.34 136.19921875 612 C146.62352884 608.72962821 156.33344335 603.97668607 165.9765625 598.8828125 C168 598 168 598 171 598 C171 597.34 171 596.68 171 596 C171.98226562 595.50693359 171.98226562 595.50693359 172.984375 595.00390625 C181.62555343 590.50024122 189.2508493 584.95989356 196.7265625 578.7265625 C199 577 199 577 201 577 C201 576.34 201 575.68 201 575 C202.64453125 573.30859375 202.64453125 573.30859375 204.8125 571.4375 C205.52019531 570.81746094 206.22789062 570.19742188 206.95703125 569.55859375 C209 568 209 568 212 567 C213.09166275 565.06669397 213.09166275 565.06669397 214 563 C214.66 562.34 215.32 561.68 216 561 C216.99117623 554.25769659 215.99850966 548.77491611 212.875 542.77734375 C212 541 212 541 212 539 C211.34 539 210.68 539 210 539 C207.375 536.625 207.375 536.625 205 534 C205 533.34 205 532.68 205 532 C204.484375 531.87625 203.96875 531.7525 203.4375 531.625 C201 531 201 531 198.125 529.9375 C192.30003419 528.20921344 186.00701882 528.85003282 180 529 C178.92474806 531.65228812 177.90543849 534.28368454 177 537 C176.34 537 175.68 537 175 537 C174.731875 537.7425 174.46375 538.485 174.1875 539.25 C173.04723249 541.89061949 171.90619694 543.85552844 170 546 C169.34 546 168.68 546 168 546 C167.75765625 546.56460938 167.5153125 547.12921875 167.265625 547.7109375 C160.05568653 560.75113486 143.0544856 570.11075838 130 576 C128.845 576.556875 127.69 577.11375 126.5 577.6875 C121.43166415 579.58812594 116.27343054 580.80576255 111 582 C110.19304687 582.20882812 109.38609375 582.41765625 108.5546875 582.6328125 C91.18438922 586.59837899 70.28736927 585.20614983 54 578 C51.69816943 577.23782133 49.38563314 576.50704496 47.0625 575.8125 C45.91910156 575.46832031 44.77570313 575.12414062 43.59765625 574.76953125 C42.74042969 574.51558594 41.88320312 574.26164063 41 574 C41.33 572.35 41.66 570.7 42 569 C42.81082031 568.89042969 43.62164062 568.78085937 44.45703125 568.66796875 C70.1951992 564.98252677 91.65378264 553.36429492 107.94921875 532.78515625 C113.69281818 525.54699725 113.69281818 525.54699725 116 517 C115.5153125 517.64066406 115.030625 518.28132812 114.53125 518.94140625 C106.0988592 529.82243361 95.43250938 538.37832708 84 546 C83.01 546 82.02 546 81 546 C81 546.66 81 547.32 81 548 C74.14133903 551.29893769 67.38860378 554.13669321 60 556 C58.14568359 556.52787109 58.14568359 556.52787109 56.25390625 557.06640625 C49.70230918 558.4992297 43.01574441 558.29809882 36.34399414 558.26074219 C34.07085391 558.25003933 31.7985066 558.26067408 29.52539062 558.2734375 C21.81578204 558.28092307 14.50061391 557.95405675 7 556 C5.39125 555.64808594 5.39125 555.64808594 3.75 555.2890625 C-1.85284653 553.9361024 -7.1470828 552.3203903 -12.453125 550.0625 C-14.5550984 549.18560312 -16.65545383 548.40007902 -18.796875 547.62890625 C-23.04535712 546.04390324 -27.00727608 544.07826556 -31 541.9375 C-31.7211499 541.55263428 -32.4422998 541.16776855 -33.18530273 540.77124023 C-38.57275891 537.85608179 -43.84774947 534.77578971 -49.0625 531.5625 C-49.75923828 531.13767334 -50.45597656 530.71284668 -51.17382812 530.27514648 C-52.82004356 529.24083016 -54.41622927 528.12761065 -56 527 C-56 526.34 -56 525.68 -56 525 C-56.68449219 524.773125 -57.36898437 524.54625 -58.07421875 524.3125 C-61.74518186 522.66571281 -64.65392227 520.46488786 -67.8125 518 C-68.40998047 517.54882812 -69.00746094 517.09765625 -69.62304688 516.6328125 C-71.12347581 515.47362397 -72.56724504 514.24186081 -74 513 C-74 512.34 -74 511.68 -74 511 C-74.66 511 -75.32 511 -76 511 C-76 510.34 -76 509.68 -76 509 C-76.84256348 508.64421875 -76.84256348 508.64421875 -77.70214844 508.28125 C-80.52582658 506.70680643 -82.47614842 504.78315455 -84.765625 502.5 C-85.65507813 501.613125 -86.54453125 500.72625 -87.4609375 499.8125 C-88.38132812 498.884375 -89.30171875 497.95625 -90.25 497 C-91.18585938 496.071875 -92.12171875 495.14375 -93.0859375 494.1875 C-93.97023438 493.300625 -94.85453125 492.41375 -95.765625 491.5 C-96.98427246 490.27796875 -96.98427246 490.27796875 -98.22753906 489.03125 C-100 487 -100 487 -100 485 C-100.66 485 -101.32 485 -102 485 C-103.9453125 482.8828125 -103.9453125 482.8828125 -106.125 480.125 C-106.84945312 479.22007812 -107.57390625 478.31515625 -108.3203125 477.3828125 C-110 475 -110 475 -110 473 C-110.66 473 -111.32 473 -112 473 C-113.48046875 471.1640625 -113.48046875 471.1640625 -115.1875 468.625 C-115.80367187 467.71621094 -116.41984375 466.80742187 -117.0546875 465.87109375 C-118.01761719 464.44990234 -118.01761719 464.44990234 -119 463 C-120.83558338 460.43829228 -122.67422599 457.87893198 -124.51953125 455.32421875 C-126.02990147 452.95305705 -127.04302448 450.63751791 -128 448 C-128.66 448 -129.32 448 -130 448 C-132.04169485 445.09451118 -133 443.59857954 -133 440 C-133.66 440 -134.32 440 -135 440 C-135.39832031 439.18015625 -135.79664063 438.3603125 -136.20703125 437.515625 C-136.73683594 436.43796875 -137.26664063 435.3603125 -137.8125 434.25 C-138.33457031 433.18265625 -138.85664063 432.1153125 -139.39453125 431.015625 C-140.86005268 428.04388904 -140.86005268 428.04388904 -142.69921875 425.859375 C-144 424 -144 424 -144 420 C-140.42431652 420.70662316 -137.48526441 422.15715098 -134.25 423.8125 C-133.26515625 424.31394531 -132.2803125 424.81539063 -131.265625 425.33203125 C-129.54367201 426.21154552 -127.8218182 427.09125547 -126.10083008 427.97265625 C-109.69438082 436.29085599 -91.72606591 443.50124315 -73.37109375 445.67578125 C-71 446 -71 446 -69 447 C-57.75611644 449.73455492 -46.16038883 449.27192967 -34.67626953 449.20581055 C-31.3479052 449.18734972 -28.01981687 449.18530275 -24.69140625 449.18554688 C-22.57291425 449.18063791 -20.45442413 449.17481233 -18.3359375 449.16796875 C-17.34226166 449.16685593 -16.34858582 449.1657431 -15.32479858 449.16459656 C-13.94658432 449.15502678 -13.94658432 449.15502678 -12.54052734 449.14526367 C-11.33026382 449.13954597 -11.33026382 449.13954597 -10.09555054 449.13371277 C-7.80603284 449.07710833 -7.80603284 449.07710833 -5 448 C-5.68924561 447.98018066 -6.37849121 447.96036133 -7.08862305 447.93994141 C-25.13000759 447.39446565 -41.57512556 445.68430202 -59 441 C-60.44632813 440.61134766 -60.44632813 440.61134766 -61.921875 440.21484375 C-66.67988988 438.86279915 -71.13167284 437.18260577 -75.6015625 435.0625 C-77.65764898 434.15166039 -79.69602683 433.38923685 -81.8125 432.63671875 C-85.94612136 431.10186795 -89.62100257 429.11030812 -93.375 426.8125 C-94.34228027 426.22746704 -94.34228027 426.22746704 -95.32910156 425.63061523 C-100.19009881 422.63275806 -104.6745243 419.30971169 -109.046875 415.62890625 C-111.10880926 413.85023746 -111.10880926 413.85023746 -114 412 C-114 411.34 -114 410.68 -114 410 C-114.66 410 -115.32 410 -116 410 C-116 409.34 -116 408.68 -116 408 C-116.639375 407.731875 -117.27875 407.46375 -117.9375 407.1875 C-120 406 -120 406 -121 403 C-121.66 403 -122.32 403 -123 403 C-140 385.08298755 -140 385.08298755 -140 377 C-140.66 377 -141.32 377 -142 377 C-142.84324672 375.421924 -143.67423918 373.8372958 -144.5 372.25 C-145.19609375 370.92742187 -145.19609375 370.92742187 -145.90625 369.578125 C-147 367 -147 367 -147 363 C-147.66 363 -148.32 363 -149 363 C-149.39832031 361.7934375 -149.79664063 360.586875 -150.20703125 359.34375 C-150.74210565 357.72913954 -151.27726652 356.11455773 -151.8125 354.5 C-152.07353516 353.70851563 -152.33457031 352.91703125 -152.60351562 352.1015625 C-153.85508722 348.33139623 -155.14293664 344.59922903 -156.59765625 340.90234375 C-158.32411233 336.36380973 -159.12984179 331.80430687 -159.9921875 327.02929688 C-160.37624021 323.73206199 -160.37624021 323.73206199 -162 321 C-162.11026087 318.7633838 -162.14915185 316.52323587 -162.16113281 314.28393555 C-162.16858017 313.22998344 -162.16858017 313.22998344 -162.17617798 312.15473938 C-162.19085283 309.81538933 -162.19761531 307.4761074 -162.203125 305.13671875 C-162.20887827 303.50779723 -162.21463598 301.87887572 -162.22039795 300.24995422 C-162.23092722 296.82247604 -162.23675522 293.3950214 -162.24023438 289.9675293 C-162.24568068 285.60453719 -162.26961646 281.24186329 -162.29820633 276.87897015 C-162.31697563 273.50632371 -162.32204615 270.13375112 -162.32357025 266.7610569 C-162.32657232 265.15491841 -162.33451678 263.54878045 -162.34775543 261.94269371 C-162.41248112 253.47601963 -162.1264703 245.62714717 -159.70574951 237.42488098 C-159.05884932 235.20220007 -158.65901932 233.10542202 -158.375 230.8125 C-158 228 -158 228 -157 227 C-156.855625 225.96875 -156.71125 224.9375 -156.5625 223.875 C-155.2715932 214.98208652 -151.88786338 206.48441613 -149 198 C-148.59523437 196.80246094 -148.19046875 195.60492188 -147.7734375 194.37109375 C-144.98564807 186.32247589 -141.66871024 178.68109358 -138 171 C-137.34831069 169.586835 -136.69867422 168.17272203 -136.05078125 166.7578125 C-132.76897781 159.62366221 -129.43458696 152.69137159 -125.25390625 146.02734375 C-123.64582778 143.42736641 -122.30781509 140.76094297 -121 138 C-120.34 138 -119.68 138 -119 138 C-118.87625 137.4225 -118.7525 136.845 -118.625 136.25 C-117.99351176 133.97664233 -117.11141809 132.0746471 -116 130 C-115.34 130 -114.68 130 -114 130 C-113.773125 129.154375 -113.54625 128.30875 -113.3125 127.4375 C-111.80761382 123.49613144 -109.87296745 120.11238141 -107 117 C-106.34 117 -105.68 117 -105 117 C-104.34 115.35 -103.68 113.7 -103 112 C-102.01 112 -101.02 112 -100 112 C-99.99589111 113.1152002 -99.99178223 114.23040039 -99.98754883 115.37939453 C-99.84257467 158.8732272 -99.84257467 158.8732272 -88.88549805 200.72949219 C-87.88541757 203.29380109 -87.84408916 205.27156027 -88 208 C-87.34 208 -86.68 208 -86 208 C-85.8040625 208.69222656 -85.608125 209.38445312 -85.40625 210.09765625 C-83.22295325 217.24042451 -80.3191118 223.54446543 -76.64257812 230.01000977 C-74 234.71007724 -74 234.71007724 -74 238 C-73.34 238 -72.68 238 -72 238 C-71.61328125 238.72445312 -71.2265625 239.44890625 -70.828125 240.1953125 C-67.45666625 246.51697953 -67.45666625 246.51697953 -63.625 252.5625 C-62 255 -62 255 -62 257 C-61.34 257 -60.68 257 -60 257 C-58.74966403 258.57716239 -57.57557958 260.21501322 -56.4375 261.875 C-50.54818705 270.15387261 -43.70330581 277.36707795 -36.5625 284.5625 C-35.78181152 285.3503186 -35.78181152 285.3503186 -34.98535156 286.15405273 C-32.25240844 288.92101144 -32.25240844 288.92101144 -29 291 C-29 291.66 -29 292.32 -29 293 C-27.35 293.66 -25.7 294.32 -24 295 C-24 295.66 -24 296.32 -24 297 C-23.45859375 297.25523437 -22.9171875 297.51046875 -22.359375 297.7734375 C-19.54508212 299.23649704 -16.91789308 300.90992588 -14.25 302.625 C-13.26515625 303.25664062 -12.2803125 303.88828125 -11.265625 304.5390625 C-10.51796875 305.02117187 -9.7703125 305.50328125 -9 306 C-9.5053125 305.51789063 -10.010625 305.03578125 -10.53125 304.5390625 C-11.1809375 303.90742188 -11.830625 303.27578125 -12.5 302.625 C-13.1496875 301.99851562 -13.799375 301.37203125 -14.46875 300.7265625 C-16 299 -16 299 -16 297 C-16.66 297 -17.32 297 -18 297 C-18 296.34 -18 295.68 -18 295 C-18.66 295 -19.32 295 -20 295 C-22.8948032 291.86222771 -25.40478464 288.3872035 -28 285 C-28.70640625 284.09636719 -29.4128125 283.19273437 -30.140625 282.26171875 C-34.71095972 276.31863961 -38.95191555 270.20519605 -43.0625 263.9375 C-43.55210205 263.19878662 -44.0417041 262.46007324 -44.54614258 261.69897461 C-44.99626709 261.00296143 -45.4463916 260.30694824 -45.91015625 259.58984375 C-46.31371338 258.96972412 -46.71727051 258.34960449 -47.13305664 257.71069336 C-48 256 -48 256 -48 253 C-48.66 253 -49.32 253 -50 253 C-50.84324672 251.421924 -51.67423918 249.8372958 -52.5 248.25 C-53.19609375 246.92742187 -53.19609375 246.92742187 -53.90625 245.578125 C-55 243 -55 243 -55 239 C-55.66 239 -56.32 239 -57 239 C-60.10079118 231.4738078 -63.15532787 224.02814327 -65.35546875 216.1796875 C-65.96437472 214.12047822 -66.69520401 212.1767906 -67.5 210.1875 C-69.64671196 204.63527115 -70.73328931 198.8009592 -72 193 C-72.185625 192.24976563 -72.37125 191.49953125 -72.5625 190.7265625 C-75.6159114 178.27436914 -76.31733611 165.62035309 -76.20581055 152.85864258 C-76.18712706 150.64327887 -76.18530472 148.42832625 -76.18554688 146.21289062 C-76.14840364 135.44521092 -76.14840364 135.44521092 -75 132 C-74.8460053 130.44009075 -74.72561089 128.87675979 -74.625 127.3125 C-73.8217955 117.87484717 -72.53852724 107.8548577 -68.8046875 99.09765625 C-67.70298211 96.22573493 -66.97705977 93.2847684 -66.1875 90.3125 C-64.1644124 83.12863043 -61.30633921 76.67404899 -58 70 C-57.40596317 68.74293713 -56.81357228 67.4850954 -56.22265625 66.2265625 C-52.63191083 58.68879511 -48.63172443 51.53164284 -44.125 44.5 C-43.64844971 43.75137695 -43.17189941 43.00275391 -42.6809082 42.23144531 C-41.51180575 40.44831759 -40.26294203 38.71794134 -39 37 C-38.34 37 -37.68 37 -37 37 C-36.814375 36.34 -36.62875 35.68 -36.4375 35 C-34.67801112 31.32802321 -32.30016355 28.75048968 -29.55859375 25.76953125 C-27.92943284 24.07185494 -27.92943284 24.07185494 -27 22 C-26.34 22 -25.68 22 -25 22 C-24.62742065 21.14390137 -24.62742065 21.14390137 -24.24731445 20.27050781 C-21.77497375 15.77006378 -17.78038813 12.36832951 -14.1875 8.75 C-13.37990234 7.90953125 -12.57230469 7.0690625 -11.74023438 6.203125 C-10.95326172 5.4090625 -10.16628906 4.615 -9.35546875 3.796875 C-8.64028076 3.06823242 -7.92509277 2.33958984 -7.18823242 1.58886719 C-4.57428779 -0.30910801 -3.15944893 -0.33654623 0 0 Z M-8 307 C-7.34 307.66 -6.68 308.32 -6 309 C-6 308.34 -6 307.68 -6 307 C-6.66 307 -7.32 307 -8 307 Z M532 307 C532.33 307.66 532.66 308.32 533 309 C533.33 308.34 533.66 307.68 534 307 C533.34 307 532.68 307 532 307 Z M119 511 C120 513 120 513 120 513 Z M406 511 C407 513 407 513 407 513 Z M118 513 C119 515 119 515 119 515 Z M407 513 C408 515 408 515 408 515 Z " fill="#2AD3D8" transform="translate(179,22)"/>
</svg>
